<svg version="1.2" xmlns="http://www.w3.org/2000/svg" viewBox="0 0 1512 1510" width="1512" height="1510">
	<title>PBI_BIG copy</title>
	<defs>
		<linearGradient id="g1" x1="222.3" y1="220.8" x2="1295.9" y2="1294.5" gradientUnits="userSpaceOnUse">
			<stop offset="0" stop-color="#ffffff"/>
			<stop offset=".1" stop-color="#ffffff" stop-opacity=".8"/>
			<stop offset=".2" stop-color="#ffffff" stop-opacity=".6"/>
			<stop offset=".4" stop-color="#ffffff" stop-opacity=".4"/>
			<stop offset=".5" stop-color="#ffffff" stop-opacity=".4"/>
			<stop offset=".6" stop-color="#ffffff" stop-opacity=".4"/>
			<stop offset=".7" stop-color="#ffffff" stop-opacity=".5"/>
			<stop offset=".8" stop-color="#ffffff" stop-opacity=".7"/>
			<stop offset=".9" stop-color="#ffffff" stop-opacity=".8"/>
			<stop offset="1" stop-color="#ffffff"/>
		</linearGradient>
	</defs>
	<style>
		.s0 { fill: url(#g1) }
		.s1 { fill: #ffffff }
	</style>
	<path id="Layer" fill-rule="evenodd" class="s0"
		  d="m1044.8 57.4c91.6 38.1 175 93.5 244.9 163.4 70.4 70.4 125.9 153.3 164 244.9 37.6 91.6 57.3 189.5 57.3 288.8 0 305.2-184.2 580.5-466.2 697.1-282.6 116.7-607.5 52.1-823.6-163.4-216-216-280.6-540.4-163.4-822.5 116.7-282 392-465.7 697.7-465.7 99.3 0 197.7 19.3 289.3 57.4zm-15.4 1357.1c86.7-36.2 165.3-88.7 231.9-154.8 66.5-66.5 119.1-145.1 154.7-231.8 36.2-86.8 54.5-179.4 54.5-273.4 0-288.8-174-549.1-441.1-660-267.6-110.4-574.8-49.2-779.7 154.8-204.4 204.4-265.7 511.5-154.8 778.6 110.4 267 371.3 441.1 660.6 441.1 94 0 187.1-18.8 273.9-54.5zm-518.9-1229.9q2.5 1 4.9 2.9 2.4 1.5 4.3 3.9 1.9 2.4 2.9 4.8c5.8 13.5 2.9 24.6-8.2 29.4-269 122-403.1 426.7-310.5 706.8 92.6 280.6 381.9 445.9 670.7 383.8 288.8-62.2 484.1-331.7 453.2-625.3-31.3-293.6-279.2-516.4-574.7-516.4h-15.5c-12.5 0-19.7-9.1-19.7-23.6 0-14.5 7.2-23.6 20.2-23.6h17.4c320.6 0 589.7 241.5 623.9 560.2 33.8 318.7-177.9 611.3-491.3 678.8-313.4 67.5-627.8-111.9-728.1-415.6-100.8-304.2 44.4-635.4 336.6-767.5h8.2q2.8 0.5 5.7 1.4zm-5.3 152.4q3.9 1 6.8 3.4 3.4 2.4 5.8 5.3 2.9 2.9 4.3 6.2 1.9 2.4 2.9 5.3 1.5 2.5 2.4 5.3 1 2.9 1 5.8 0.5 2.9 0.5 5.8-0.5 2.4-1.5 4.8-0.9 2.4-2.4 4.4-1.4 2.4-3.4 4.3-1.9 1.5-3.8 2.9c-60.3 40-109.5 94-143.7 157.2-34.2 63.6-52.1 134.5-52.1 206.3 0 71.9 17.9 142.7 52.1 206.4 34.2 63.1 83.4 117.1 143.7 156.6q4.3 3.4 6.7 8.2 2.9 4.9 3.4 10.2 0.5 5.3-1.4 10.6-1.5 5.3-5.4 9.1-1.9 3.4-4.3 6.3-2.4 2.4-5.3 4.3-3.4 2-6.7 3.4-3.4 1-7.3 1-1.9 0.5-3.4 0-1.9-0.5-3.8-1-1.5-0.5-2.9-1.4-1.9-0.5-3.4-2c-68.4-44.8-124.9-106-163.9-178.3-38.6-71.9-59.3-152.9-59.3-234.3 0-82 20.7-163 59.3-234.8 39-72.3 95.5-133.6 163.9-178.4q1.5-1 3.4-1.9 1.4-1 2.9-1.5 1.9-0.5 3.8-1 1.5-0.4 3.4 0 3.9 0 7.7 1.5zm250.3 851.9c115.7 0 226.6-45.8 308.1-127.8 82-81.5 127.8-192.3 127.8-307.6 0-115.7-45.8-226.6-127.8-308-81.5-81.5-192.4-127.3-308.1-127.3h-10.6c-15 0-24.6-12.1-24.6-29.9 0-17.8 9.6-29.4 24.6-29.4h10.6c131.1 0 257 52.1 350 144.6 92.6 92.6 144.7 218.4 144.7 349.6 0 130.6-52.1 256.4-144.7 349-93 92.6-218.9 144.6-350 144.6h-10.6c-15 0-24.6-8.6-24.6-28.9 0-20.2 10.6-29.4 24.6-29.4zm-290.3-645.5q3.9-5.8 10.1-8.7 5.8-3.4 12.6-3.9 7.2-0.5 13.5 1.9 6.2 2.5 11.1 7.3 6.5 2.9 10.1 8.7c2.9 3.3 4.8 7.7 5.8 12 0.9 4.3 0.9 9.2 0 13.5-1 4.3-2.9 8.2-5.8 12.1-16.9 24.5-30.4 51.1-39.5 79.5-9.2 28.5-13.5 58.3-13.5 88.2 0 29.9 4.3 59.3 13.5 87.8 9.1 28.4 22.6 55.4 39.5 79.5 2.9 3.9 4.8 8.2 5.8 12.6q1.4 6.5 0 13c-1 4.3-2.9 8.7-5.8 12.5q-3.6 5.1-10.1 8.7-4.9 4.8-11.1 6.7-6.3 2.5-13.5 2-6.8-0.5-12.6-3.4-6.2-3.4-10.1-8.7c-22.2-30.8-39-64.6-50.6-100.3-11.6-35.6-17.4-72.8-17.4-110.4 0-37.6 5.8-75.2 17.4-110.8 11.6-35.7 28.4-69.5 50.6-99.8z"/>
	<path id="Layer" fill-rule="evenodd" class="s1"
		  d="m756.4 957c-22.6 0-36.1-17.4-36.1-43.9 0-26 13.5-42.9 36.1-42.9 30.9-1 59.8-14.5 81.1-36.6 20.7-22.7 32.3-52.6 30.8-83-1-30.8-14-59.7-36.6-80.5-22.2-21.2-52.1-32.3-83-31.3q-10.6-0.5-21.7 1-10.6 0.9-21.2 4.3-10.6 3.4-20.2 8.2-9.7 4.8-18.4 11.6v538.5c0 25.5-17.8 38.5-43.3 38.5-25.1 0-43-13-43-38.5v-571.3q2-6.8 5.3-13 3.4-6.3 7.8-11.6 4.8-5.3 10.1-9.6 5.8-4.4 12-7.3 15.9-9.1 32.8-15.9 17.4-6.7 34.7-11.6 17.9-4.8 36.2-7.7 17.8-2.4 36.2-2.9c55.4-2.9 109.9 17.4 150.4 55.5 40 38.1 63.2 91.1 63.2 146.5 0 55.5-23.2 108.5-63.2 147.1-40.5 38.1-95 57.8-150.4 54.9zm-1 157.7c93.1-3.9 180.3-42.9 244.9-109.9 64.2-67 100.3-156.2 100.3-249.3 0-92.5-36.1-181.7-100.3-248.8-64.6-67-152.3-106.5-245.4-109.9q-11.1-0.5-22.2 0.5-11.5 0.5-22.6 1.9-11.1 1.5-22.2 3.9-11.1 1.9-21.7 4.8v-260.3c0-23.2-16.4-37.1-43.4-37.1-26.5 0-42.9 13.9-42.9 37.1v321.1c0 5.3 0.5 10.6 2.4 15.4 1.9 4.8 4.3 9.2 8.2 13 3.4 3.4 7.7 6.8 12.5 8.7 4.9 1.9 9.7 2.9 15 3.4q4.3-0.5 8.7-1.5 4.3-0.5 8.6-1.9 3.9-1 8.2-2.4 3.9-1.5 8.2-3.4 12.6-4.8 25.6-8.2 12.5-3.9 26-5.8 13-2.4 26.5-3.4 13.5-1.4 27-0.9c72.4 0 142.3 28.9 193.4 80 51.6 51.1 80 120.5 80 193.3 0 72.4-28.4 141.8-80 193.4-51.1 51.1-121 80-193.4 80-23.1 0-36.6 16.4-36.6 42.9 0 25.6 13 42.9 35.2 43.4zm-0.5 0q0 0 0.5 0 0.5 0 1 0z"/>
</svg>
